<svg xmlns="http://www.w3.org/2000/svg" viewBox="0 0 518.25 519"><defs><style>.cls-1{fill:#c2c2c2;}.cls-2{fill:#48525e;}.cls-3{fill:#fefefe;}.cls-4{fill:#ca5525;}.cls-5{fill:#fdd8ac;}.cls-6{fill:#fde0b8;}.cls-7{fill:#fdd6ad;}.cls-8{fill:#f4cda4;}</style></defs><g id="Layer_2" data-name="Layer 2"><g id="Layer_1-2" data-name="Layer 1"><path class="cls-1" d="M96.62,519H.76c-.71-1.29-.36-2.7-.36-4q0-255,0-510A11.79,11.79,0,0,1,.64.89C1.86,0,3.29.4,4.6.4q255,0,510,0c1.23,0,2.51-.31,3.68.36V519H448.6a7.75,7.75,0,0,1-2.28-4.18c-1.13-4.34-2-8.75-3.49-13a34.13,34.13,0,0,0-14.76-18.23c-21.81-13.34-43.72-26.5-65.54-39.82-5.41-3.3-5.44-3.28-8.6,2.3-13,22.89-26.27,45.6-39.2,68.52A12.73,12.73,0,0,1,310.8,519H235.16a10.17,10.17,0,0,1-4.37-4.43c-12.87-22.77-26.08-45.36-39-68.12-3.43-6.06-3.39-5.94-9.42-2.28-21,12.71-41.87,25.62-63,38.13-10.19,6-16.18,14.72-18.67,26.19C99.94,512.14,100.06,516.32,96.62,519Z"/><path class="cls-2" d="M96.62,519c2.33-9.34,3.48-19,9.4-27.19,3.93-5.41,9.26-8.93,14.78-12.29q33.45-20.31,66.92-40.54a6,6,0,0,1,1.33-.27c2,3.5,4.24,7.17,6.37,10.88q19.88,34.7,39.74,69.41Z"/><path class="cls-2" d="M310.8,519c3.28-6.09,6.42-12.26,9.85-18.26q16.82-29.4,33.8-58.7c.67-1.16,1.49-2.23,2.41-3.59l24.08,14.61c15.72,9.54,31.42,19.11,47.18,28.58a37.06,37.06,0,0,1,17.36,22.86c1.28,4.77,2.1,9.66,3.12,14.5Z"/><path class="cls-3" d="M518.25.75H6.39C.76.75.76.75.76,6.39V519c-.25-.12-.71-.24-.72-.38-.06-1,0-2,0-3V0Q257.44,0,514.88,0A16.23,16.23,0,0,1,518.25.75Z"/><path class="cls-4" d="M150.4,210.47a171.14,171.14,0,0,1-1.53-40.71,185.25,185.25,0,0,1,9.74-47.12,121.38,121.38,0,0,1,24.33-41.85,99.19,99.19,0,0,1,23-18.74,24.65,24.65,0,0,0,2.58-2c-1.17-4.4-2.79-8.36-3.21-12.45-1.21-11.62,4.79-20,13.44-26.68,11.93-9.18,25.86-13.29,40.64-15a101.46,101.46,0,0,1,49.3,6c11.56,4.49,21.82,10.85,27.46,22.66a23.91,23.91,0,0,1,1,19.12c-.92,2.49-.37,3.34,1.78,4.56,8.07,4.6,16.44,8.85,23.85,14.37C377,83.26,386.88,97.47,393.25,114.1c5.55,14.48,7.9,29.46,8.29,45,.42,16.51-2.11,32.53-5.79,48.48.58,9.06-4.24,16.42-7.78,24.12a51.1,51.1,0,0,1-7.3,11.24c-1.05,1.27-2.06,2.53-3.95,2.38-1.78-.73-2.07-2.31-2.29-4-2.16-16.33-5.3-32.43-11.09-47.93a190.9,190.9,0,0,0-14.4-29.52c-6.11-10.44-12.68-20.58-19.4-30.63-.88-1.31-1.57-2.84-3.59-3.93-13.33,16.65-31.35,25.14-51.83,29.15-13,3.45-26.42,4.93-39.53,7.86-10.34,2.32-20.62,4.93-29.84,10.48-8.56,5.15-14.8,12.52-19.76,21-7.58,13-11.9,27.08-14.19,41.87-.05.37,0,.75-.1,1.12-.41,1.68-.57,3.75-2.58,4.17-1.82.38-2.9-1.28-3.83-2.57a106.33,106.33,0,0,1-13.52-25.32A12.64,12.64,0,0,1,150.4,210.47Z"/><path class="cls-5" d="M150.4,210.47c3.4,12.55,9.64,23.62,17.68,34.36,1.48-7.13,2.49-13.79,4.26-20.25,4.47-16.36,11.16-31.6,23.89-43.47,9.34-8.71,21.06-12.51,33.08-15.21,14.48-3.26,29.12-5.78,43.69-8.6a4.62,4.62,0,0,1,1.11,0c1.36.83,1.51,2.19,1.58,3.59.09,1.74.08,3.49.08,5.24q0,109.64,0,219.27c0,2.6.38,5.25-.59,7.77-1.14,2.37-3.35,2.32-5.46,2.27a79.93,79.93,0,0,1-40.15-12c-2.54-1.54-5.34-2.79-6.31-6a12.68,12.68,0,0,0-2-3C204.65,361,193.57,343.58,185.84,324c-3.27-8.31-5.61-17-8.41-25.48a23.75,23.75,0,0,0-1.14-2.59c-3,.76-5.62,2.05-8.19,1.94-4.09-.17-6.95-3.16-8.21-6.75A183,183,0,0,1,153,268a227.74,227.74,0,0,1-4.38-30.17C147.94,228.71,147,219.38,150.4,210.47Z"/><path class="cls-6" d="M274.11,393.92V157.34c5.28-1.67,10.57-3.27,15.82-5,14.07-4.74,26.08-12.46,35-24.55a4.54,4.54,0,0,1,.76-.82,6.75,6.75,0,0,1,1.28-.52c3.1,4.71,6.44,9.44,9.43,14.38,6.8,11.24,14,22.26,19.95,34A178.72,178.72,0,0,1,369,206.67c3.33,11.89,4.71,24.33,7,36.52a8.54,8.54,0,0,0,.71,1.69c2.34,1.77,1.7,4.35,1.49,6.58-1.12,11.63-2.3,23.26-4.52,34.75-.38,2-.42,4.37-3,5.17-.65.58-1.67,1.06-1.89,1.77-1.94,6.31-3.75,12.65-5.57,19-1.1,3.82-1.87,7.78-3.31,11.46-1.7,4.32-4.11,8.36-6,12.62-1.91,4.42-4.14,8.44-8.17,11.42-1,.77-.44,3.53-1.39,4.75-6,7.67-11.23,16-19.61,21.54-1.29.85-1.84,2.79-2.74,4.23a5.51,5.51,0,0,1-2.52,3.1,83.32,83.32,0,0,1-38.85,14.08C278.45,395.58,275.88,396.28,274.11,393.92Z"/><path class="cls-7" d="M323.47,388.7c.83,4.77,1.82,9.53,2.38,14.33a5.6,5.6,0,0,1-1.44,4.39c-10.59,8.45-21.37,16.65-32,25Q284,439,275.86,445.79c-2,1.65-3.27,2.11-5.67.19q-23.17-18.5-46.71-36.51c-3.28-2.52-5-4.85-3.48-9.23,1.28-3.69,1.63-7.71,2.39-11.59,2.28-1,3.84.61,5.43,1.68A82.24,82.24,0,0,0,258.35,403c18.48,3.49,35.92.41,52.4-8.5,3-1.61,5.81-3.4,8.64-5.23C320.63,388.47,321.92,387.51,323.47,388.7Z"/><path class="cls-7" d="M370.69,291.38c1.51-8.94,3.23-17.84,4.44-26.82.88-6.51,1.08-13.12,1.58-19.68,7.21-7,11.22-16,14.85-25.09,1.59-4,2.81-8.16,4.19-12.25,3.33,8.91,3.61,18,2.84,27.45a265.1,265.1,0,0,1-7.7,46.91A48.66,48.66,0,0,1,385.32,294c-2.35,3.93-6.76,4.77-10.81,3.29C371.55,296.19,371.63,293.55,370.69,291.38Z"/><path class="cls-8" d="M323.47,388.7c-3.6,2.19-7.12,4.53-10.82,6.54C283.59,411,255.17,409.5,227.38,392c-1.69-1.07-3.33-2.2-5-3.31q.42-5.59.85-11.18c15.28,10.69,32,17,50.87,16.45a78.19,78.19,0,0,0,41.81-12.34c2-1.24,4.08-2.28,6.12-3.42C322.52,381.67,323,385.19,323.47,388.7Z"/></g></g></svg>