<svg xmlns="http://www.w3.org/2000/svg" xmlns:xlink="http://www.w3.org/1999/xlink" viewBox="0 0 600 450"><defs><style>.cls-1{isolation:isolate;}.cls-2{opacity:0.3;}.cls-3{fill:#42e8e0;}.cls-4,.cls-9{opacity:0.11;}.cls-5{fill:url(#Áåçûìÿííûé_ãðàäèåíò_143);}.cls-6{fill:url(#Áåçûìÿííûé_ãðàäèåíò_143-2);}.cls-7{fill:url(#Áåçûìÿííûé_ãðàäèåíò_143-3);}.cls-8{fill:url(#Áåçûìÿííûé_ãðàäèåíò_143-4);}.cls-9{fill:url(#Áåçûìÿííûé_ãðàäèåíò_143-5);}.cls-10{fill:url(#Áåçûìÿííûé_ãðàäèåíò_143-6);}.cls-11{fill:url(#Áåçûìÿííûé_ãðàäèåíò_143-7);}.cls-12{fill:url(#Áåçûìÿííûé_ãðàäèåíò_143-8);}.cls-13{fill:url(#Áåçûìÿííûé_ãðàäèåíò_143-9);}.cls-14,.cls-58{opacity:0.5;}.cls-14{fill:url(#Áåçûìÿííûé_ãðàäèåíò_143-10);}.cls-15{fill:url(#Áåçûìÿííûé_ãðàäèåíò_143-12);}.cls-16{fill:#180d5b;opacity:0.2;}.cls-17{fill:#160a5b;}.cls-18{fill:#24126a;}.cls-19{fill:url(#Áåçûìÿííûé_ãðàäèåíò_12);}.cls-20{fill:url(#Áåçûìÿííûé_ãðàäèåíò_12-2);}.cls-21{fill:url(#Áåçûìÿííûé_ãðàäèåíò_143-13);}.cls-22{fill:#f0f6ff;}.cls-23{fill:#fcd1c5;}.cls-24{fill:url(#Áåçûìÿííûé_ãðàäèåíò_12-3);}.cls-25{fill:url(#Áåçûìÿííûé_ãðàäèåíò_12-4);}.cls-26{fill:#453c9e;}.cls-27{fill:#aa8383;}.cls-28{fill:#c4ccd6;}.cls-29{fill:#e2b1a6;}.cls-30{fill:#936d6d;}.cls-31{fill:url(#Áåçûìÿííûé_ãðàäèåíò_42);}.cls-32{fill:url(#Áåçûìÿííûé_ãðàäèåíò_12-5);}.cls-33{fill:url(#Áåçûìÿííûé_ãðàäèåíò_2);}.cls-34{fill:#4846a5;}.cls-35{fill:url(#Áåçûìÿííûé_ãðàäèåíò_44);}.cls-36{fill:url(#Áåçûìÿííûé_ãðàäèåíò_2-2);}.cls-37{fill:#722318;}.cls-38{fill:url(#Áåçûìÿííûé_ãðàäèåíò_2-3);}.cls-39{fill:url(#Áåçûìÿííûé_ãðàäèåíò_16);}.cls-40,.cls-42,.cls-52,.cls-57{mix-blend-mode:lighten;}.cls-40{fill:url(#Áåçûìÿííûé_ãðàäèåíò_12-6);}.cls-41{fill:url(#Áåçûìÿííûé_ãðàäèåíò_16-2);}.cls-43{fill:url(#Áåçûìÿííûé_ãðàäèåíò_12-7);}.cls-44{fill:url(#Áåçûìÿííûé_ãðàäèåíò_16-3);}.cls-45{fill:url(#Áåçûìÿííûé_ãðàäèåíò_12-8);}.cls-46{fill:#393091;}.cls-47{fill:url(#Áåçûìÿííûé_ãðàäèåíò_16-4);}.cls-48{fill:#bcbeff;}.cls-49{fill:url(#Áåçûìÿííûé_ãðàäèåíò_16-5);}.cls-50{fill:url(#Áåçûìÿííûé_ãðàäèåíò_12-9);}.cls-51{fill:url(#Áåçûìÿííûé_ãðàäèåíò_16-6);}.cls-52{fill:url(#Áåçûìÿííûé_ãðàäèåíò_12-10);}.cls-53{fill:#fff;}.cls-54{fill:url(#Áåçûìÿííûé_ãðàäèåíò_16-7);}.cls-55{fill:url(#Áåçûìÿííûé_ãðàäèåíò_12-11);}.cls-56{fill:url(#Áåçûìÿííûé_ãðàäèåíò_16-8);}.cls-57{fill:url(#Áåçûìÿííûé_ãðàäèåíò_12-12);}.cls-59{fill:#25bfec;}.cls-60{fill:#05a4c9;}.cls-61{fill:#00afa2;}</style><linearGradient id="Áåçûìÿííûé_ãðàäèåíò_143" x1="159.4" y1="317.89" x2="273.99" y2="317.89" gradientTransform="matrix(-1, 0, 0, 1, 519.67, 0)" gradientUnits="userSpaceOnUse"><stop offset="0" stop-color="#5761d7"/><stop offset="0.07" stop-color="#5472d8"/><stop offset="0.28" stop-color="#4e9cdb"/><stop offset="0.48" stop-color="#49bddd"/><stop offset="0.67" stop-color="#45d5df"/><stop offset="0.85" stop-color="#43e3e0"/><stop offset="1" stop-color="#42e8e0"/></linearGradient><linearGradient id="Áåçûìÿííûé_ãðàäèåíò_143-2" x1="159.4" y1="309.07" x2="273.99" y2="309.07" xlink:href="#Áåçûìÿííûé_ãðàäèåíò_143"/><linearGradient id="Áåçûìÿííûé_ãðàäèåíò_143-3" x1="159.4" y1="300.26" x2="273.99" y2="300.26" xlink:href="#Áåçûìÿííûé_ãðàäèåíò_143"/><linearGradient id="Áåçûìÿííûé_ãðàäèåíò_143-4" x1="159.4" y1="291.44" x2="273.99" y2="291.44" xlink:href="#Áåçûìÿííûé_ãðàäèåíò_143"/><linearGradient id="Áåçûìÿííûé_ãðàäèåíò_143-5" x1="159.4" y1="304.66" x2="273.99" y2="304.66" xlink:href="#Áåçûìÿííûé_ãðàäèåíò_143"/><linearGradient id="Áåçûìÿííûé_ãðàäèåíò_143-6" x1="147.22" y1="276.48" x2="286.16" y2="276.48" xlink:href="#Áåçûìÿííûé_ãðàäèåíò_143"/><linearGradient id="Áåçûìÿííûé_ãðàäèåíò_143-7" x1="147.22" y1="265.79" x2="286.16" y2="265.79" xlink:href="#Áåçûìÿííûé_ãðàäèåíò_143"/><linearGradient id="Áåçûìÿííûé_ãðàäèåíò_143-8" x1="147.22" y1="255.1" x2="286.16" y2="255.1" xlink:href="#Áåçûìÿííûé_ãðàäèåíò_143"/><linearGradient id="Áåçûìÿííûé_ãðàäèåíò_143-9" x1="147.22" y1="244.41" x2="286.16" y2="244.41" xlink:href="#Áåçûìÿííûé_ãðàäèåíò_143"/><linearGradient id="Áåçûìÿííûé_ãðàäèåíò_143-10" x1="147.22" y1="260.45" x2="286.16" y2="260.45" xlink:href="#Áåçûìÿííûé_ãðàäèåíò_143"/><linearGradient id="Áåçûìÿííûé_ãðàäèåíò_143-12" x1="147.22" y1="263.68" x2="286.16" y2="263.68" xlink:href="#Áåçûìÿííûé_ãðàäèåíò_143"/><linearGradient id="Áåçûìÿííûé_ãðàäèåíò_12" x1="369.92" y1="241.94" x2="433.62" y2="257.92" gradientUnits="userSpaceOnUse"><stop offset="0" stop-color="#42e8e0"/><stop offset="0" stop-color="#42e6df"/><stop offset="0.14" stop-color="#40b6cb"/><stop offset="0.27" stop-color="#3e8db9"/><stop offset="0.41" stop-color="#3c6baa"/><stop offset="0.55" stop-color="#3b519f"/><stop offset="0.69" stop-color="#3a3f97"/><stop offset="0.84" stop-color="#393493"/><stop offset="1" stop-color="#393091"/></linearGradient><linearGradient id="Áåçûìÿííûé_ãðàäèåíò_12-2" x1="-745.39" y1="194.68" x2="-802.48" y2="185.38" gradientTransform="matrix(-1, 0, 0, 1, -377.26, 0)" xlink:href="#Áåçûìÿííûé_ãðàäèåíò_12"/><linearGradient id="Áåçûìÿííûé_ãðàäèåíò_143-13" x1="1248.57" y1="201" x2="1263.23" y2="201" gradientTransform="matrix(1, 0.06, -0.06, 1, -852.7, -53.73)" xlink:href="#Áåçûìÿííûé_ãðàäèåíò_143"/><linearGradient id="Áåçûìÿííûé_ãðàäèåíò_12-3" x1="-742.14" y1="189.39" x2="-769.68" y2="176.01" gradientTransform="matrix(-1, 0, 0, 1, -377.26, 0)" xlink:href="#Áåçûìÿííûé_ãðàäèåíò_12"/><linearGradient id="Áåçûìÿííûé_ãðàäèåíò_12-4" x1="-757.91" y1="201.53" x2="-806.39" y2="182.33" gradientTransform="matrix(-1, 0, 0, 1, -377.26, 0)" xlink:href="#Áåçûìÿííûé_ãðàäèåíò_12"/><linearGradient id="Áåçûìÿííûé_ãðàäèåíò_42" x1="218.25" y1="310.34" x2="164.67" y2="332.14" xlink:href="#Áåçûìÿííûé_ãðàäèåíò_12"/><linearGradient id="Áåçûìÿííûé_ãðàäèåíò_12-5" x1="214.18" y1="237.53" x2="156.88" y2="249.58" xlink:href="#Áåçûìÿííûé_ãðàäèåíò_12"/><linearGradient id="Áåçûìÿííûé_ãðàäèåíò_2" x1="-1093.85" y1="116.08" x2="-1091.44" y2="116.08" gradientTransform="matrix(-1, -0.09, -0.09, 1, -906.61, -16.03)" xlink:href="#Áåçûìÿííûé_ãðàäèåíò_143"/><linearGradient id="Áåçûìÿííûé_ãðàäèåíò_44" x1="254.93" y1="304.23" x2="200.19" y2="328.58" gradientUnits="userSpaceOnUse"><stop offset="0" stop-color="#42e8e0"/><stop offset="0.11" stop-color="#40c1cf"/><stop offset="0.25" stop-color="#3e91bb"/><stop offset="0.4" stop-color="#3c6cab"/><stop offset="0.53" stop-color="#3b519f"/><stop offset="0.64" stop-color="#3a4198"/><stop offset="0.73" stop-color="#3a3b96"/><stop offset="0.84" stop-color="#393493"/><stop offset="1" stop-color="#393091"/></linearGradient><linearGradient id="Áåçûìÿííûé_ãðàäèåíò_2-2" x1="-1133.18" y1="228.4" x2="-1128.94" y2="228.4" gradientTransform="matrix(-1, -0.09, -0.09, 1, -906.61, -16.03)" xlink:href="#Áåçûìÿííûé_ãðàäèåíò_143"/><linearGradient id="Áåçûìÿííûé_ãðàäèåíò_2-3" x1="-1141.19" y1="220.36" x2="-1136.96" y2="220.36" gradientTransform="matrix(-1, -0.09, -0.09, 1, -906.61, -16.03)" xlink:href="#Áåçûìÿííûé_ãðàäèåíò_143"/><radialGradient id="Áåçûìÿííûé_ãðàäèåíò_16" cx="-2404.24" cy="-1722.15" r="25.92" gradientTransform="matrix(0.66, 0.64, -1.06, 1.08, 25.46, 3597.71)" gradientUnits="userSpaceOnUse"><stop offset="0" stop-color="#c0bff6"/><stop offset="1" stop-color="#393091"/></radialGradient><linearGradient id="Áåçûìÿííûé_ãðàäèåíò_12-6" x1="-2540.44" y1="-115.35" x2="-2552.58" y2="-99.15" gradientTransform="matrix(0.66, 0.64, -0.8, 0.82, 1835.74, 1931.95)" xlink:href="#Áåçûìÿííûé_ãðàäèåíò_12"/><radialGradient id="Áåçûìÿííûé_ãðàäèåíò_16-2" cx="-96.78" cy="-199.66" r="77.43" gradientTransform="matrix(0.95, 0.32, -0.32, 0.95, 368.18, 361.42)" xlink:href="#Áåçûìÿííûé_ãðàäèåíò_16"/><linearGradient id="Áåçûìÿííûé_ãðàäèåíò_12-7" x1="-372.25" y1="436.66" x2="-345.42" y2="436.66" gradientTransform="matrix(0.9, -0.44, 0.44, 0.9, 400.14, -374.78)" xlink:href="#Áåçûìÿííûé_ãðàäèåíò_12"/><radialGradient id="Áåçûìÿííûé_ãðàäèåíò_16-3" cx="907.47" cy="298.27" r="76.49" gradientTransform="translate(-382.26 -123.18) scale(0.78 1.06)" xlink:href="#Áåçûìÿííûé_ãðàäèåíò_16"/><linearGradient id="Áåçûìÿííûé_ãðàäèåíò_12-8" x1="881.21" y1="349.45" x2="881.21" y2="273" gradientTransform="translate(-382.26 -123.18) scale(0.78 1.06)" xlink:href="#Áåçûìÿííûé_ãðàäèåíò_12"/><radialGradient id="Áåçûìÿííûé_ãðàäèåíò_16-4" cx="268.54" cy="92.58" r="41.91" gradientTransform="matrix(1, 0, 0, 1, 0, 0)" xlink:href="#Áåçûìÿííûé_ãðàäèåíò_16"/><radialGradient id="Áåçûìÿííûé_ãðàäèåíò_16-5" cx="326.83" cy="142.17" r="59.7" gradientTransform="matrix(1, 0, 0, 1, 0, 0)" xlink:href="#Áåçûìÿííûé_ãðàäèåíò_16"/><linearGradient id="Áåçûìÿííûé_ãðàäèåíò_12-9" x1="299.87" y1="182.39" x2="309.7" y2="112.42" xlink:href="#Áåçûìÿííûé_ãðàäèåíò_12"/><radialGradient id="Áåçûìÿííûé_ãðàäèåíò_16-6" cx="326.35" cy="141.54" r="28.35" gradientTransform="matrix(1, 0, 0, 1, 0, 0)" xlink:href="#Áåçûìÿííûé_ãðàäèåíò_16"/><linearGradient id="Áåçûìÿííûé_ãðàäèåíò_12-10" x1="320.64" y1="169.87" x2="330.61" y2="142.5" xlink:href="#Áåçûìÿííûé_ãðàäèåíò_12"/><radialGradient id="Áåçûìÿííûé_ãðàäèåíò_16-7" cx="-70.87" cy="-148.38" r="27.98" gradientTransform="translate(391.47 347.27) rotate(11.2)" xlink:href="#Áåçûìÿííûé_ãðàäèåíò_16"/><linearGradient id="Áåçûìÿííûé_ãðàäèåíò_12-11" x1="-86.08" y1="-128.41" x2="-67.85" y2="-148.09" gradientTransform="translate(391.47 347.27) rotate(11.2)" xlink:href="#Áåçûìÿííûé_ãðàäèåíò_12"/><radialGradient id="Áåçûìÿííûé_ãðàäèåíò_16-8" cx="173.44" cy="-1634.09" r="25.92" gradientTransform="matrix(0.91, 0.11, -0.18, 1.5, -83.01, 2664.47)" xlink:href="#Áåçûìÿííûé_ãðàäèåíò_16"/><linearGradient id="Áåçûìÿííûé_ãðàäèåíò_12-12" x1="201.91" y1="320.11" x2="222.16" y2="320.11" gradientTransform="matrix(0.91, 0.11, -0.14, 1.14, 204.87, -144.2)" xlink:href="#Áåçûìÿííûé_ãðàäèåíò_12"/></defs><g class="cls-1"><g id="Ñëîé_1" data-name="Ñëîé 1"><g class="cls-2"><path class="cls-3" d="M408.35,211.57c1.1,6.23,5.71,21.87,24.76,32.69,27.11,12.52,45.89,29,52.19,47.36a42.57,42.57,0,0,0,1.63,3.95c.68-1.11.68-1.11.68-3.8V260.91c0-18.11-1-22.11-2.31-27.16-6.3-18.38-25.08-34.84-52.19-47.36-21.63-7-26.87,13.3-24.76,25.18Z"/><path class="cls-3" d="M209.52,174.55c28.71-8.33,62.67-13,98.91-12.72q7.19.06,14.21.38c31.82,2.9,43.14,36.51,23.95,51.22-8.8,6.75-19.42,6.68-23.95,6.65q-7-.32-14.21-.38c-36.24-.29-70.2,4.4-98.91,12.72C180.54,239.48,178.83,210,189,192c3.41-6.06,9.75-14,20.56-17.46Z"/><path class="cls-3" d="M122.89,305.33c.79-9.17,1.41-16.41,10.75-29.06,19.69-29,15.71-62.81,4.84-61.25-1.75.25-3.58,2.14-4.84,3.38-6.61,8.61-10.36,17.88-10.72,27.54,0,.51,0,1,0,1.52v57.87Z"/></g><g class="cls-4"><path class="cls-5" d="M298.55,286.59a8.8,8.8,0,0,1,8.78,0l52.33,30.14a1.24,1.24,0,0,1,0,2.14L306.9,349.32a7.72,7.72,0,0,1-7.75,0l-52.84-30.43a1.23,1.23,0,0,1,0-2.14Z"/></g><g class="cls-4"><path class="cls-6" d="M298.55,277.77a8.77,8.77,0,0,1,8.78,0l52.33,30.14a1.24,1.24,0,0,1,0,2.14L306.9,340.51a7.77,7.77,0,0,1-7.75,0l-52.84-30.43a1.23,1.23,0,0,1,0-2.14Z"/></g><g class="cls-4"><path class="cls-7" d="M298.55,269a8.8,8.8,0,0,1,8.78,0l52.33,30.14a1.24,1.24,0,0,1,0,2.14L306.9,331.69a7.72,7.72,0,0,1-7.75,0l-52.84-30.43a1.23,1.23,0,0,1,0-2.14Z"/></g><g class="cls-4"><path class="cls-8" d="M298.55,260.14a8.77,8.77,0,0,1,8.78,0l52.33,30.14a1.24,1.24,0,0,1,0,2.14L306.9,322.88a7.77,7.77,0,0,1-7.75,0l-52.84-30.43a1.23,1.23,0,0,1,0-2.14Z"/></g><path class="cls-9" d="M246.31,290.31l52.24-30.17a8.77,8.77,0,0,1,8.78,0l52.33,30.14a1.23,1.23,0,0,1,.62,1.07v26.44a1.23,1.23,0,0,1-.62,1.07L306.9,349.32a7.72,7.72,0,0,1-7.75,0l-52.84-30.43a1.21,1.21,0,0,1-.62-1.07V291.38h0A1.2,1.2,0,0,1,246.31,290.31Z"/><g class="cls-4"><path class="cls-10" d="M297.61,238.53a10.66,10.66,0,0,1,10.65,0l63.44,36.55a1.49,1.49,0,0,1,0,2.59l-64,36.94a9.4,9.4,0,0,1-9.4,0l-64.07-36.9a1.5,1.5,0,0,1,0-2.6Z"/></g><g class="cls-4"><path class="cls-11" d="M297.61,227.84a10.69,10.69,0,0,1,10.65,0l63.44,36.55a1.5,1.5,0,0,1,0,2.6l-64,36.93a9.4,9.4,0,0,1-9.4,0L234.26,267a1.49,1.49,0,0,1,0-2.59Z"/></g><g class="cls-4"><path class="cls-12" d="M297.61,217.15a10.66,10.66,0,0,1,10.65,0l63.44,36.54a1.5,1.5,0,0,1,0,2.6l-64,36.93a9.4,9.4,0,0,1-9.4,0l-64.07-36.9a1.49,1.49,0,0,1,0-2.59Z"/></g><g class="cls-4"><path class="cls-13" d="M297.61,206.46a10.66,10.66,0,0,1,10.65,0L371.7,243a1.5,1.5,0,0,1,0,2.6l-64,36.94a9.44,9.44,0,0,1-9.4,0l-64.07-36.91a1.49,1.49,0,0,1,0-2.59Z"/></g><path class="cls-14" d="M234.26,243l63.35-36.58a10.66,10.66,0,0,1,10.65,0L371.7,243a1.5,1.5,0,0,1,.75,1.3v32.07a1.47,1.47,0,0,1-.75,1.29l-64,36.94a9.4,9.4,0,0,1-9.4,0l-64.07-36.9a1.48,1.48,0,0,1-.75-1.3V244.34h0A1.48,1.48,0,0,1,234.26,243Z"/><g class="cls-4"><path class="cls-13" d="M297.61,206.46a10.66,10.66,0,0,1,10.65,0L371.7,243a1.5,1.5,0,0,1,0,2.6l-64,36.94a9.44,9.44,0,0,1-9.4,0l-64.07-36.91a1.49,1.49,0,0,1,0-2.59Z"/></g><path class="cls-15" d="M234.26,244.16l64.07,36.9a9.4,9.4,0,0,0,9.4,0l64-36.94a1.43,1.43,0,0,0,.56-.56,1.5,1.5,0,0,1-.56,2l-64,36.94a9.44,9.44,0,0,1-9.4,0l-64.07-36.91a1.5,1.5,0,0,1-.56-2A1.5,1.5,0,0,0,234.26,244.16Z"/><ellipse class="cls-16" cx="302.98" cy="244.41" rx="34.93" ry="20.17"/><path class="cls-17" d="M399.71,280.13s-.85.88-1.73,1.93a23.81,23.81,0,0,1-4.4,3.14c-1,.64-5.81,4.26-6.8,7.82s2.41,4,5.89,3.41,6.74-3.84,7.69-5a32.76,32.76,0,0,1,8.53-6c4.27-2.21,1.69-5.19,1.69-5.19Z"/><path class="cls-17" d="M431.46,290.7a13.13,13.13,0,0,1,.91,3.66c.2,2.06.49,6.52.59,7.82a11,11,0,0,1-2.14,7.56c-2.3,3.06-3.49,4.26-6.54,3.06s-3-6.33-2.44-9a72,72,0,0,0,1-9.15,1.89,1.89,0,0,1,.18-1Z"/><path class="cls-18" d="M389.18,219.67s.64,23.5,6.12,36a90.83,90.83,0,0,1,4.44,24.06,4.67,4.67,0,0,0,.37,4.08c1.29,1.83,9.33,3.5,10.66-2.51s.82-17.25-.64-21.94.51-17.61.51-17.61,2.2,1.4,5.08,10.69a121.92,121.92,0,0,0,6,15.39c1,2.56,1.91,18.3,1.28,26,0,0,6.51.92,8.39-2.19s2.51-19.21,2-24.35-2.63-21.57-2.33-26.66,1.35-9.22.19-14.3-35.52-16.38-35.52-16.38Z"/><path class="cls-19" d="M389.18,219.67s.64,23.5,6.12,36a90.83,90.83,0,0,1,4.44,24.06,4.67,4.67,0,0,0,.37,4.08c1.29,1.83,9.33,3.5,10.66-2.51s.82-17.25-.64-21.94.51-17.61.51-17.61,2.2,1.4,5.08,10.69a121.92,121.92,0,0,0,6,15.39c1,2.56,1.91,18.3,1.28,26,0,0,6.51.92,8.39-2.19s2.51-19.21,2-24.35-2.63-21.57-2.33-26.66,1.35-9.22.19-14.3-35.52-16.38-35.52-16.38Z"/><path class="cls-17" d="M431.09,240.58c.29-5.09,1.35-9.22.19-14.3-.44-1.91-5.57-4.7-11.8-7.44-10.51-1-23.85-2.07-24.76-1.93a33.44,33.44,0,0,0-4.81,1.67l-.73,1.09s0,1.43.18,3.76c2.45.74,7.17,0,7.17,0,.66,1.65,4.76,7.51,9.85,10s20,1.66,20.87,2.62,1,13.83.92,15.46,1.41,11.94,2.8,21-.72,19.85-.79,20.2a3.57,3.57,0,0,0,1.2-1.18c1.88-3.11,2.51-19.21,2-24.35S430.79,245.67,431.09,240.58Z"/><path class="cls-20" d="M400.68,142.81s-7.63,1.74-10.19,2.34a1.31,1.31,0,0,0-.93.81c-.74,1.87-2.6,7.69-1.2,16.19a80.86,80.86,0,0,1,1.18,17.49L386,198s-4.43,17.47-4.05,17.95,10.21,7.95,13.28,6.9,2.06-2.79,2.06-2.79,2.49,12.67,13.49,12.54,20-.08,21.87-4.53-.51-23.16-2.45-30.57-6.55-22.17-6.55-22.17l16.12-17.84L426,147s-3.29-6.11-4.64-6.89-2.06-.12-2.06-.12Z"/><path class="cls-21" d="M395.43,218.81c0,.63-.37,1.58-2.34,2.26-2.14.73-7.38-2.45-10.81-4.85,1.71,1.43,10.15,7.58,13,6.62a4.9,4.9,0,0,0,1.38-.69A22.7,22.7,0,0,1,395.43,218.81Z"/><path class="cls-22" d="M421.06,139.91s2.81,3.4-1.24,8a110.21,110.21,0,0,0-10.44,15.27c-2.28,4-4.39,6.07-5.58,9.47,0,0-.17-4-.33-10.28-.15-5.89-.23-12,0-13.55C404,145.65,418,138.36,421.06,139.91Z"/><path class="cls-23" d="M410.53,150.15s-1.44.9-1.94.82-2.09-1.62-2.09-1.62-4-.07-4.44-1.79a36.91,36.91,0,0,0-1.12-4.32c-.41-.89-2.13-5.16-2.15-6.9s.06-4.83-.69-6.47-1.76-18,14.08-17.57,10.91,16.9,10.91,16.9,1.16.5.46,2.61-.86,2.34-1.21,3.39a4.77,4.77,0,0,1-1.54,2.58l-.27,1.95a7.79,7.79,0,0,1-1.21,5.87C417.35,148.5,410.53,150.15,410.53,150.15Z"/><path class="cls-18" d="M390.05,145.34s-1.68.25-7.16,14c-3.06,7.69-7.78,15.65-8.78,21.37s-.44,11.82.69,12.26l26.93,10.1a.58.58,0,0,0,.78-.44l1.7-9.51L392,188.44a17.64,17.64,0,0,0-4.51-3.91s2.44-4.51,2.29-5.75.22-14-1.21-19.17S390.05,145.34,390.05,145.34Z"/><path class="cls-24" d="M390.05,145.34s-1.68.25-7.16,14c-3.06,7.69-7.78,15.65-8.78,21.37s-.44,11.82.69,12.26l26.93,10.1a.58.58,0,0,0,.78-.44l1.7-9.51L392,188.44a17.64,17.64,0,0,0-4.51-3.91s2.44-4.51,2.29-5.75.22-14-1.21-19.17S390.05,145.34,390.05,145.34Z"/><path class="cls-23" d="M397.21,181.77a23.83,23.83,0,0,0-2.1-1.29c-.42-.16-2.67-.93-3.1-1.12a8,8,0,0,0-2.28,0,.7.7,0,0,0-.56.37c-.52,1-2,3.77-1.81,4.84,0,0,4.07,2.57,4.53,3.72l.65.14S395.26,182.61,397.21,181.77Z"/><path class="cls-18" d="M430.21,197.49c-.46-1.78-1.09-4-1.76-6.31l-24.74,10.6a26.08,26.08,0,0,0,20.38,8.53,17.05,17.05,0,0,0,8-2.54A98.24,98.24,0,0,0,430.21,197.49Z"/><path class="cls-18" d="M439.78,157.48s-6.52.9-11.8,9.25a126.5,126.5,0,0,0-9.11,18l-.18,1.08a4.4,4.4,0,0,1-6.13,3.3c-5.57-2.49-13.81-6.24-15.35-7.37a14.18,14.18,0,0,0-6.28,9.16c-1.07,5.14-.8,5.15-.8,5.15s22,10.26,30.46,10.16,19.25-28,20.43-33.77S443.52,159.11,439.78,157.48Z"/><path class="cls-25" d="M439.78,157.48s-6.52.9-11.8,9.25a126.5,126.5,0,0,0-9.11,18l-.18,1.08a4.4,4.4,0,0,1-6.13,3.3c-5.57-2.49-13.81-6.24-15.35-7.37a14.18,14.18,0,0,0-6.28,9.16c-1.07,5.14-.8,5.15-.8,5.15s22,10.26,30.46,10.16,19.25-28,20.43-33.77S443.52,159.11,439.78,157.48Z"/><path class="cls-26" d="M415.71,190.44s2.77,2.59,4,1.17.85-1.58.85-1.58,2.49,0,2.8-1.58,1.53-.74,1.6-2.48-2-1.38-2-1.38Z"/><path class="cls-23" d="M412.36,189.05s.76-.71,1.75-1.54,2.57-4.27,2.84-4.57,3.58-2.85,5.18-2.89.41,1.74,0,2-1.92,1-1.92,1-1.61,1.35-1.79,1.55,4.46-.32,5.2.13a1.25,1.25,0,0,1,0,2,1.71,1.71,0,0,1-.91.31,1.62,1.62,0,0,1-.88,2c-1.39.65-1.71.29-1.71.29s-.12,2.41-2.42,1.93Z"/><path class="cls-27" d="M397.74,121.49s-2.07,6.58,3.37,4.71,10.37-5,12.08-3.82c1.3.91,1.24,3.7,1.14,5a1.89,1.89,0,0,0,.32,1.22l1.62,2.35a1.77,1.77,0,0,1,.31.89l.11,1.63a.82.82,0,0,0,.77.76l.37,0a.81.81,0,0,0,.86-.67l.42-2.4s1.28-3.22,4-2c0,0,1.82-2.43,1.21-7.63S421.37,111,411.16,110.1,397.74,121.49,397.74,121.49Z"/><path class="cls-28" d="M413.34,155.94l-1.53-1.18a8.17,8.17,0,0,0-2,2.42c-.55,1.24,0,5.2,0,5.2l-.47.8-.57-1.05-.48-4.68s.52-3.45.57-3.54,2.94.31,2.94.31A5.91,5.91,0,0,1,413.34,155.94Z"/><path class="cls-28" d="M406,151.29a5.2,5.2,0,0,0-2.37.72s1.71.08,2,.11S406,151.29,406,151.29Z"/><path class="cls-18" d="M409.1,151.66l2.74,2.56a6.19,6.19,0,0,0-3.07,3.25s-3,.56-3.25-.52,0-3.8-.35-5S409.1,151.66,409.1,151.66Z"/><path class="cls-18" d="M405.63,156.89a15.15,15.15,0,0,1-1.07,3.17c-.56.92-1.13,2-1.13,2l.07,13.14s4.84-10,5.88-12c0,0-.16-4.8-.61-5.71S405.63,156.89,405.63,156.89Z"/><path class="cls-29" d="M418.6,137.47c-3.17,9.16-12.1,11.88-12.1,11.88s1.59,1.55,2.09,1.62,1.94-.82,1.94-.82,6.82-1.65,8.79-4.55a7.79,7.79,0,0,0,1.21-5.87l.27-1.95A2.18,2.18,0,0,1,418.6,137.47Z"/><path class="cls-18" d="M425.87,148.19s-1.26,4.33-1.42,4.49a19.66,19.66,0,0,1-3.15-.18l1.45,2.74s-15,16.13-18.15,24.8a184.56,184.56,0,0,1,19.64-24.12l-1.77-2.68,3.07.6Z"/><path class="cls-18" d="M401.17,144.37l-.8.92.94.87-2.78,2.51s-.85,17.64,2.54,29.33c0,0-4.61-10.72-3.56-29.81l3-2-1-1Z"/><path class="cls-17" d="M410.64,241.72l.11.08-3.9-4.15c1.8,2.54-.27,14.15-.48,16.81s2.08,8.15,2.93,14.58-.9,15.59-.9,15.62a5,5,0,0,0,2.37-3.39c1.33-6,.82-17.25-.64-21.94S410.64,241.72,410.64,241.72Z"/><path class="cls-30" d="M417.83,134.23a.81.81,0,0,0,.86-.67l.42-2.4s1.28-3.22,4-2c0,0,1.71-2.31,1.25-7.22-3,4.52-9.69,6.6-9.69,6.6l1.62,2.35a1.77,1.77,0,0,1,.31.89l.11,1.63a.82.82,0,0,0,.77.76Z"/><path class="cls-17" d="M184.67,356.48a39.52,39.52,0,0,0,6.87,1c3.38.14,12.56,2,12.34,5.41s-5,8.39-11,9.12-13.76-1-17.69-.89a5.51,5.51,0,0,1-5.08-7.74C171.59,359.55,184.67,356.48,184.67,356.48Z"/><path class="cls-17" d="M164.4,347.26s-1.29,2.08-.66,3.35,2.31,4.43,7.81,1.37,16-7.4,16-7.4,6.06-3.23,5.72-7-5.9-3.22-5.9-3.22Z"/><path class="cls-18" d="M200.09,293.32s-2.33,24.7-7.3,34.06c-5,9.52-6.44,26.95-7.49,30.28s-4.32,8.15-9.47,9.17-6-2.48-5.75-4.59,1.68-5.49,1.7-7.77a23.6,23.6,0,0,0-.59-4.37s-5.9,1.74-6.79-2.84a13.33,13.33,0,0,0,.55-2c.08-.68-.5-17.21-.64-19.22a84.18,84.18,0,0,1,2.57-18.13c1.62-5.28,1.08-16.52,1.08-16.52l16.8-2.34Z"/><path class="cls-31" d="M200.09,293.32s-2.33,24.7-7.3,34.06c-5,9.52-6.44,26.95-7.49,30.28s-4.32,8.15-9.47,9.17-6-2.48-5.75-4.59,1.68-5.49,1.7-7.77a23.6,23.6,0,0,0-.59-4.37s-5.9,1.74-6.79-2.84a13.33,13.33,0,0,0,.55-2c.08-.68-.5-17.21-.64-19.22a84.18,84.18,0,0,1,2.57-18.13c1.62-5.28,1.08-16.52,1.08-16.52l16.8-2.34Z"/><path class="cls-17" d="M172.94,293.17a19,19,0,0,0,1.68,7.1s0,13.13,1.31,19.78c0,0-2.17,13.35-3.54,17.56s-1.2,12.49-1.2,12.49a5.62,5.62,0,0,1-1.63.28c-1,0-1-16.32.45-19.2s2.58-15.62,2-19.51-.36-14.9-1.09-16.85a2.47,2.47,0,0,1,.91-3Z"/><path class="cls-17" d="M187.08,204.06a12.08,12.08,0,0,1,4.63,9.63l-3.62-.78S189.16,206.16,187.08,204.06Z"/><path class="cls-17" d="M185.18,298.55C174.05,298.89,168,294,168,294c0-1.56-.08-2.58-.08-2.58l16.8-2.34,15.33,4.28s-.46,4.87-1.41,11.11c-2.73.29-5.41-6.42-5.41-6.42l-7.64.49S196.31,298.21,185.18,298.55Z"/><path class="cls-26" d="M197.94,293.68s-24.2,9.89-35.91-8.86a3.3,3.3,0,0,1-.46-1.84l.15-4.37a4.46,4.46,0,0,0-.24-1.62h0a7,7,0,0,1-.24-3.49c.91-4.88,3.36-18.15,3.94-21.84.7-4.49-1.68-22.47-5.7-30.25s6.21-24.94,6.21-24.94a6.6,6.6,0,0,1,7.38-2.65s-4.66,3.26-2.11,6.7,10.21,6.22,10.21,6.22,14.15,7.35,19,16.28A37.57,37.57,0,0,1,202,233.54c.15,5.94-.51,20.2-.26,22.19s1,15.57.92,16.21S197.94,293.68,197.94,293.68Z"/><path class="cls-32" d="M197.94,293.68s-24.2,9.89-35.91-8.86a3.3,3.3,0,0,1-.46-1.84l.15-4.37a4.46,4.46,0,0,0-.24-1.62h0a7,7,0,0,1-.24-3.49c.91-4.88,3.36-18.15,3.94-21.84.7-4.49-1.68-22.47-5.7-30.25s6.21-24.94,6.21-24.94a6.6,6.6,0,0,1,7.38-2.65s-4.66,3.26-2.11,6.7,10.21,6.22,10.21,6.22,14.15,7.35,19,16.28A37.57,37.57,0,0,1,202,233.54c.15,5.94-.51,20.2-.26,22.19s1,15.57.92,16.21S197.94,293.68,197.94,293.68Z"/><path class="cls-33" d="M170.79,196.31a3.5,3.5,0,0,1,.08-2.74,7,7,0,0,1,2.2.25A8.74,8.74,0,0,0,170.79,196.31Z"/><path class="cls-18" d="M190.61,295.7S176.35,257.21,177,243.24c.66-13.63,20.81,27.6,20.81,27.6l.1,22.84A43.1,43.1,0,0,1,190.61,295.7Z"/><path class="cls-34" d="M198.3,250.23a61.34,61.34,0,0,1-.85-9.44c-.07-5.48-1.6-14.56-11.51-13-14,2.23-8,21.84-6.48,25.27s7.67,19,8,19.87,10,20.22,13.44,24.87a.85.85,0,0,0,1.26.16c1.4-1.19,4.55-4,5-5.84.52-2.31-1.5-10.7-1.5-10.7s-5.45-21-5.91-21.95C199.37,258.76,199.14,255.32,198.3,250.23Z"/><path class="cls-23" d="M186.84,204.5a4.93,4.93,0,0,1,3.68-2.79c2.57-.26,4-1,4.29-1.93a18,18,0,0,1,.89-3.51,25.8,25.8,0,0,0,1.13-5c0-.08,1.95-.67,2-1.53s-.92-3.92-.8-4.16a7.69,7.69,0,0,0,1-3.57,17.88,17.88,0,0,0-1.11-5.36c-.77-1.79-6.22-12.65-20.38-7.05-14.32,5.65-3.43,17.66-4.84,25.45,0,0-1.27,1.64,1.06,4.43S182.93,202.92,186.84,204.5Z"/><path class="cls-29" d="M173.81,199.51c-2.33-2.79-1.06-4.43-1.06-4.43a10.66,10.66,0,0,0,0-3.47l5.6,1.07s8.28-7.36,7.69-3.42,1.42,4.66,1.42,4.66l-1.7,2.16c-.43.55-.18,1.21.18,1.82,2.36,4.06,8.1,2.84,8.11,2.84a8.09,8.09,0,0,1-3.5,1,4.93,4.93,0,0,0-3.68,2.79C182.93,202.92,176.15,202.31,173.81,199.51Z"/><path class="cls-27" d="M198.58,172.55s1,2.9-.61,4.13-3.06,2.38-3.06,2.38v3.68a2.76,2.76,0,0,1-.44,1.5l-2,3.11a3.71,3.71,0,0,0-.6,2v1.51a.87.87,0,0,1-.76.86l-.53.06a.86.86,0,0,1-.94-.78l-.22-2.09s-1.06-1.68-3.39.32l-2.09.86a2.28,2.28,0,0,0-1.26,1.32c-.59,1.61-1.84,4.79-2.77,5.32-1.27.72-6.17-1.82-6.82-2.94s-2.31-8.58-3.33-12.14-.42-12.29,10.13-14.52S197.13,169.38,198.58,172.55Z"/><path class="cls-30" d="M173.07,193.82c-.66-1.12-2.31-8.58-3.33-12.14a25.92,25.92,0,0,0,9.37,3.52c5.3.81,15.81-5.16,15.81-5.16v2.7a2.76,2.76,0,0,1-.44,1.5l-2,3.11a3.71,3.71,0,0,0-.6,2v1.51a.87.87,0,0,1-.76.86l-.53.06a.86.86,0,0,1-.94-.78l-.22-2.09s-1.06-1.68-3.39.32l-3,1.24s-1.84,5.55-3.1,6.26S173.72,194.94,173.07,193.82Z"/><path class="cls-22" d="M172.86,194.18s-4.11,2.52-2.06,6.11,16.93,10,17.66,11c0,0,.59-5.37-1.38-7.19,0,0-11.39-2.22-13.16-5.13S172.86,194.18,172.86,194.18Z"/><path class="cls-28" d="M172.86,194.18s-.69,1.86,1.06,4.75c1.34,2.2,8.18,4,11.44,4.76h0s-1.21.68-3.24,4.13c-4.57-2.38-10.12-5.43-11.32-7.53C168.75,196.7,172.86,194.18,172.86,194.18Z"/><path class="cls-18" d="M170.08,205.65s6.63,3.79,9.86,5.51,6.76,4,6.76,4l1.24-1.23,1.49,3.26s5.09,3.06,7.47,5.61a25.81,25.81,0,0,1,4.45,6.66S195,221.13,190,218.65l-1.34-.68-.76-2.59-1.23,1.3S172.1,207.9,170.08,205.65Z"/><path class="cls-26" d="M187.17,318h0a3.23,3.23,0,0,1,.88-1.42l27.25-22.88c.72-.6,1.41-.14,1.55,1L220,321.39a4.29,4.29,0,0,1-1.06,3.38l-22.89,19.79.79,7.7L190,349.11v0a1.63,1.63,0,0,1-.59-1.3L186.9,320A4.74,4.74,0,0,1,187.17,318Z"/><path class="cls-26" d="M222.72,296.36l-6.44-2.79-.21-.09a.9.9,0,0,0-.77.25l-27.25,22.88a3.33,3.33,0,0,0-.89,1.42l1,.47h0l5.55,2.68,23.88-20.42h0Z"/><path class="cls-18" d="M225.68,327.75,197.82,352c-.77.66-1.49.16-1.61-1.14l-2.71-28a4.35,4.35,0,0,1,1.13-3.36l27.19-23c.72-.61,1.41-.14,1.56,1l3.35,26.77A4.31,4.31,0,0,1,225.68,327.75Z"/><path class="cls-35" d="M225.68,327.75,197.82,352c-.77.66-1.49.16-1.61-1.14l-2.71-28a4.35,4.35,0,0,1,1.13-3.36l27.19-23c.72-.61,1.41-.14,1.56,1l3.35,26.77A4.31,4.31,0,0,1,225.68,327.75Z"/><path class="cls-17" d="M192.75,349.26l-2.63-27.91a4.37,4.37,0,0,1,1.14-3.35l27.22-22.93a1,1,0,0,1,.65-.27.85.85,0,0,0-.88.22L191,317.94a4.34,4.34,0,0,0-1.14,3.36l2.62,27.9c.08.89.43,1.44.9,1.46C193.05,350.5,192.81,350,192.75,349.26Z"/><path class="cls-17" d="M202.72,308.17l-1.42-.71a1.42,1.42,0,0,0-.89-.16l-.11,0c-.15,0-.22.18-.2.4l0,.26,4,2,0-.26a1.28,1.28,0,0,0-.3-.66l-.13-.15A3.64,3.64,0,0,0,202.72,308.17Z"/><polygon class="cls-17" points="202.22 311.62 204.14 310 200.16 307.42 198.27 309.01 202.22 311.62"/><path class="cls-36" d="M200.8,309.8l-1.43-.72a1.39,1.39,0,0,0-.88-.16l-.12,0c-.14,0-.22.18-.19.4l0,.26,4,2,0-.26a1.21,1.21,0,0,0-.3-.65l-.14-.15A3.24,3.24,0,0,0,200.8,309.8Z"/><polygon class="cls-37" points="199.95 310.48 199.82 309.31 199.94 309.37 200.07 310.54 199.95 310.48"/><polygon class="cls-37" points="199.82 309.31 201.8 307.71 201.91 307.77 199.95 309.37 199.82 309.31"/><path class="cls-17" d="M211.38,300.9l-1.42-.71a1.34,1.34,0,0,0-.89-.15l-.11,0c-.14,0-.21.18-.19.4l0,.25,4,2,0-.25a1.19,1.19,0,0,0-.31-.65l-.13-.14A3.2,3.2,0,0,0,211.38,300.9Z"/><polygon class="cls-17" points="210.9 304.3 212.8 302.69 208.83 300.15 206.96 301.72 210.9 304.3"/><path class="cls-38" d="M209.48,302.5l-1.42-.71a1.34,1.34,0,0,0-.89-.15l-.11,0c-.14,0-.21.18-.19.4l0,.25,4,2,0-.26a1.16,1.16,0,0,0-.31-.64l-.13-.15A3.37,3.37,0,0,0,209.48,302.5Z"/><polygon class="cls-37" points="208.63 303.18 208.51 302.01 208.63 302.07 208.76 303.24 208.63 303.18"/><polygon class="cls-37" points="208.51 302.01 210.46 300.44 210.56 300.49 208.63 302.07 208.51 302.01"/><path class="cls-26" d="M199.06,303.73l.51,5,1.29-1.09-.5-4.82a2.56,2.56,0,0,1,.77-2l5.54-4.64c.5-.41,1-.18,1,.51l.53,4.78,1.27-1.07-.55-4.9c-.17-1.53-1.19-2-2.28-1.12l-5.92,4.93A5.71,5.71,0,0,0,199.06,303.73Z"/><path class="cls-26" d="M208.62,295.79l-2.29-.23-6.61,6.16-.28,3.8.13,3.18,1.48.74,0-4,.07-2.71,1.37-2s2.48-2,2.51-2.06S208.62,295.79,208.62,295.79Z"/><polygon class="cls-26" points="209.72 302.14 208.24 301.41 207.85 297.89 209.26 298 209.68 298.07 209.72 302.14"/><path class="cls-26" d="M209.67,294.7l-1.59-.78s.42.87.42.86l.53.19Z"/><path class="cls-17" d="M200.53,304.46l.52,5,1.29-1.09-.51-4.83a2.57,2.57,0,0,1,.77-2l5.54-4.64c.5-.42,1-.19,1,.51l.54,4.78,1.27-1.07-.56-4.91c-.17-1.53-1.2-2-2.29-1.12L202.23,300A5.72,5.72,0,0,0,200.53,304.46Z"/><path class="cls-23" d="M206.73,291.94s.94,4.86.68,6.08-2.59,3.57-4,4-.83-1.24-1.15-2.28a15.46,15.46,0,0,1-.26-3.33Z"/><path class="cls-29" d="M202,296.41l4.72-4.47s.19,1,.38,2.2a11.73,11.73,0,0,1-5,5A19,19,0,0,1,202,296.41Z"/><path class="cls-34" d="M207.08,292.3s-1.67,5.24-5.86,5.73l1.42-5.73s3.54-1,3.65-1S207.08,292.3,207.08,292.3Z"/><path class="cls-39" d="M259.55,214.17c-4.49,4.58-16.31,10.72-20,7.13s2.22-15.55,6.71-20.13,11.1-5.4,14.77-1.81S264.05,209.58,259.55,214.17Z"/><path class="cls-40" d="M259.55,214.17c-4.49,4.58-16.31,10.72-20,7.13s2.22-15.55,6.71-20.13,11.1-5.4,14.77-1.81S264.05,209.58,259.55,214.17Z"/><path class="cls-3" d="M260.08,201.72a2,2,0,0,1-.83-.17,2.15,2.15,0,0,1-1.16-2.82l6.67-15.94a2.16,2.16,0,1,1,4,1.67l-6.67,15.94A2.17,2.17,0,0,1,260.08,201.72Z"/><rect class="cls-3" x="347.57" y="195.35" width="4.32" height="36.85" transform="translate(-54.66 146.83) rotate(-22.04)"/><circle class="cls-41" cx="271.15" cy="175.46" r="13.41" transform="translate(-20.46 36.64) rotate(-7.45)"/><g class="cls-42"><circle class="cls-43" cx="271.15" cy="175.46" r="13.41" transform="translate(-51.69 166.32) rotate(-31.29)"/></g><path class="cls-44" d="M338,199.82c0,26-15.5,47.14-34.63,47.14s-34.63-21.11-34.63-47.14S284.28,166,303.41,166,338,173.78,338,199.82Z"/><g class="cls-42"><path class="cls-45" d="M338,199.82c0,26-15.5,47.14-34.63,47.14s-34.63-21.11-34.63-47.14S284.28,166,303.41,166,338,173.78,338,199.82Z"/></g><ellipse class="cls-46" cx="303.41" cy="179.98" rx="23.64" ry="13.65"/><path class="cls-3" d="M286.7,174c9.23-5.33,24.19-5.33,33.42,0,3.82,2.2,6.05,5,6.71,7.83.95-4.07-1.29-8.34-6.71-11.46-9.23-5.33-24.19-5.33-33.42,0-5.42,3.12-7.65,7.39-6.71,11.46C280.65,178.93,282.89,176.16,286.7,174Z"/><path class="cls-47" d="M276.13,147.55l4.27-7.37a23.75,23.75,0,0,0,5.55-9.56l4.33-7.46-6.23-3.57a3.85,3.85,0,0,0-.62-.36h0c-1.78-.84-4.13-.62-6.71.87-5.51,3.18-10,10.91-10,17.27,0,3.18,1.11,5.41,2.92,6.45h0Z"/><ellipse class="cls-48" cx="283.13" cy="135.31" rx="14.1" ry="8.14" transform="translate(24.38 312.85) rotate(-60)"/><circle class="cls-49" cx="304.79" cy="147.4" r="35.32"/><g class="cls-42"><circle class="cls-50" cx="304.79" cy="147.4" r="35.32"/></g><path class="cls-51" d="M324.55,171.29l4.28-7.37a23.81,23.81,0,0,0,5.54-9.55l4.33-7.46-6.22-3.58a6.44,6.44,0,0,0-.63-.36h0c-1.77-.84-4.13-.61-6.71.88-5.51,3.18-10,10.91-10,17.27,0,3.17,1.12,5.4,2.92,6.45h0Z"/><path class="cls-52" d="M324.55,171.29l4.28-7.37a23.81,23.81,0,0,0,5.54-9.55l4.33-7.46-6.22-3.58a6.44,6.44,0,0,0-.63-.36h0c-1.77-.84-4.13-.61-6.71.88-5.51,3.18-10,10.91-10,17.27,0,3.17,1.12,5.4,2.92,6.45h0Z"/><path class="cls-48" d="M341.52,153.3c0,6.36-4.46,14.09-10,17.27s-10,.6-10-5.76,4.46-14.09,10-17.26S341.52,146.94,341.52,153.3Z"/><path class="cls-53" d="M322,164.89c0-6.35,4.47-14.08,10-17.26a8.48,8.48,0,0,1,5.21-1.32,8.05,8.05,0,0,0-5.67,1.24c-5.5,3.17-10,10.9-10,17.26,0,4.16,1.9,6.7,4.76,7.07C323.75,171.3,322,168.82,322,164.89Z"/><ellipse class="cls-46" cx="331.55" cy="159.06" rx="10.08" ry="5.82" transform="translate(28.03 366.66) rotate(-60)"/><path class="cls-26" d="M335.65,150a5.83,5.83,0,0,1,1.17,3.84,15.74,15.74,0,0,1-7.13,12.34,5.7,5.7,0,0,1-4.09.87c1.27,1.5,3.46,1.71,5.95.27a15.73,15.73,0,0,0,7.13-12.34C338.68,152.16,337.48,150.39,335.65,150Z"/><ellipse class="cls-46" cx="283.69" cy="156.43" rx="8.97" ry="15.53" transform="translate(-38.33 121.03) rotate(-22.6)"/><path class="cls-3" d="M289.17,158.12c-.33,2.53-2.23,3.32-4.25,1.77a8.78,8.78,0,0,1-3.07-7.37c.33-2.52,2.23-3.32,4.25-1.77A8.83,8.83,0,0,1,289.17,158.12Z"/><path class="cls-26" d="M284.73,168c-5.57-4.26-9.35-13.34-8.44-20.28.36-2.84,1.45-4.88,3-6-2.91.27-5.11,2.74-5.66,7-.91,6.94,2.87,16,8.44,20.28,3.29,2.52,6.48,2.78,8.71,1.13A8.83,8.83,0,0,1,284.73,168Z"/><path class="cls-3" d="M282.54,168.78c-5.57-4.25-9.35-13.33-8.45-20.28.42-3.21,1.77-5.41,3.65-6.41-2.13.87-3.67,3.15-4.12,6.64-.91,6.94,2.87,16,8.44,20.28,3,2.28,5.88,2.7,8.06,1.54C288,171.42,285.31,170.9,282.54,168.78Z"/><path class="cls-54" d="M356,199.3a13.41,13.41,0,1,1-10.55-15.76A13.41,13.41,0,0,1,356,199.3Z"/><g class="cls-42"><path class="cls-55" d="M356,199.3a13.41,13.41,0,1,1-10.55-15.76A13.41,13.41,0,0,1,356,199.3Z"/></g><path class="cls-56" d="M364.21,241.14c-.76,6.37-6.39,18.45-11.48,17.84s-7.73-13.67-7-20,5.51-11.05,10.6-10.44S365,234.77,364.21,241.14Z"/><path class="cls-57" d="M364.21,241.14c-.76,6.37-6.39,18.45-11.48,17.84s-7.73-13.67-7-20,5.51-11.05,10.6-10.44S365,234.77,364.21,241.14Z"/><g class="cls-58"><path class="cls-3" d="M144.09,322.3c-1.32,10.62-6.83,16.94-12.62,9-7.43-10.15-8.15-20.07-8.58-26V247.46c0,9.06,3,17.79,8.58,26,12.24,20.24,13.69,40.22,12.62,48.84Z"/><path class="cls-3" d="M315.9,332.9q-6.86.19-13.83.13c-36.39-.29-70.1-5.58-98.23-14.43-28.11-7.51-29.8,21.9-20,40.06,7,12.93,16.43,16.48,20,17.81,28.13,8.85,61.84,14.14,98.23,14.43q7,.06,13.83-.12c33-2.44,41.67-34.15,26.23-49-4.3-4.13-12.35-9-26.23-8.92Z"/><path class="cls-3" d="M487.58,286.76c-.16,25-1.63,29.58-3.49,35.35-7.73,18.25-27.79,34.37-55.87,46.41-24.58,7.26-31.37-18.29-21.37-37.23a49.18,49.18,0,0,1,21.37-20.64c28.08-12,48.14-28.16,55.87-46.41a30.27,30.27,0,0,1,2.13-3.92l.63-.08c.47,1.34.67,1.89.73,8.72v17.8Z"/></g><path class="cls-59" d="M187.17,122,134.63,91.67a2.52,2.52,0,0,0-2.54-.22h0l-2.21,1.28L131,93a5.32,5.32,0,0,0-.25,1.69v24.52c0,2.89,1.76,6.25,3.93,7.51L155.92,139l4.2,12.11-1.55,3.6,2.33-1.34,5-8.62L187.17,157a4.11,4.11,0,0,0,.42.21h0l-.33,1.4,2.32-1.32h0c.93-.42,1.53-1.57,1.53-3.26V129.51C191.1,126.61,189.34,123.25,187.17,122Z"/><path class="cls-60" d="M184.84,123.33,132.3,93c-2.17-1.25-3.93.08-3.93,3v24.52c0,2.9,1.76,6.26,3.93,7.51l21.29,12.29,5,14.38,5-8.63,21.29,12.29c2.17,1.26,3.93-.07,3.93-3V130.84C188.77,128,187,124.59,184.84,123.33Z"/><path class="cls-53" d="M156.7,130v-3.56q4-1.62,4-5.29c0-.1,0-.2,0-.31a3.58,3.58,0,0,0-.47-1.71,3,3,0,0,0-1.11-1.12c-.43-.26-.77-.28-1-.08a1.15,1.15,0,0,0-.3.92,1.7,1.7,0,0,0,0,.22,6.45,6.45,0,0,0,.21,1.45l-3.3-1.08a13.14,13.14,0,0,1-.3-2.18,7.33,7.33,0,0,1,0-.79,3.21,3.21,0,0,1,1-2.71q1.17-.87,3.68.58a10.57,10.57,0,0,1,3.88,3.74,9.71,9.71,0,0,1,1.36,5,6.28,6.28,0,0,1-1.2,4,6.43,6.43,0,0,1-3.06,2.16v2.68Zm-.1,5.78v-4l3.56,2.05v4Z"/><path class="cls-61" d="M478.34,95,425.8,64.7a2.52,2.52,0,0,0-2.54-.22h0L421,65.75l1.08.24a5.3,5.3,0,0,0-.25,1.68V92.2c0,2.89,1.76,6.25,3.93,7.5L447.09,112l4.19,12.11-1.55,3.6,2.34-1.33,5-8.63L478.34,130l.42.21h0l-.33,1.4,2.32-1.33h0c.92-.42,1.52-1.57,1.52-3.25V102.54C482.26,99.65,480.51,96.29,478.34,95Z"/><path class="cls-3" d="M476,96.37,423.47,66c-2.17-1.26-3.93.07-3.93,3V93.53c0,2.89,1.76,6.25,3.93,7.51l21.28,12.29,5,14.37,5-8.62L476,131.37c2.17,1.25,3.93-.08,3.93-3V103.88C479.93,101,478.17,97.62,476,96.37Z"/><path class="cls-53" d="M449,108.66v-3.81l3.33,1.92v3.81Zm1.07-4.64-1-16.86,3.47,2-1.23,15.57Z"/></g></g></svg>