<svg xmlns="http://www.w3.org/2000/svg" viewBox="0 0 518.25 519"><defs><style>.cls-1{fill:#c2c2c2;}.cls-2{fill:#fefefe;}.cls-3{fill:#48525e;}.cls-4{fill:#fdd8ac;}.cls-5{fill:#fde0b8;}.cls-6{fill:#66839d;}.cls-7{fill:#969696;}.cls-8{fill:#f3cca4;}.cls-9{fill:#fcd6ae;}.cls-10{fill:#fdd6ae;}</style></defs><g id="Layer_2" data-name="Layer 2"><g id="Layer_1-2" data-name="Layer 1"><path class="cls-1" d="M.75,0h517.5V518.24c-1.29.71-2.69.36-4,.36q-25.39,0-50.79,0c-2.95-.06-3.08-2.5-3.58-4.47-3-11.59-6.12-23.14-9-34.76-1.64-6.74-4-13.09-8.65-18.43-3.09-3.53-6.89-6.1-10.76-8.59-25.72-16.49-51.31-33.18-76.94-49.81a23,23,0,0,1-2.38-1.81c-5-5.81-7.81-12.91-11.57-19.44q-6.78-11.76-13.13-23.76c-1.12-2.14-2.43-4-5.11-4.4a2.81,2.81,0,0,1-2-1.57c-1.26-2,.12-4.27-.56-6.33,1-4.81.24-9.74,1-14.55a10.49,10.49,0,0,1,4-10.55c2.35-1.91,3.84-4.62,5.25-7.22,3-5.54,6.78-10.55,8.78-16.77,1.49-4.62,2.93-9.49,5.48-13.73,2.89-4.8,3.24-10.14,3.85-15.42.36-3.07,2.45-5.1,3.8-7.55.69-1.26,2.21-.76,3.32.05,7.13,4.71,11.24,3.54,15-4.29s5.1-16.08,6.6-24.4c2.55-14.09,4.73-28.22,4.09-42.6-.34-7.47-2-14.55-7.46-20.15-1-1.87-.69-3.88-.57-5.86,1.59-26.29-2.33-51.67-13.46-75.62-4.58-9.85-11.95-17.43-22.46-21.37A40.06,40.06,0,0,0,327.77,63,16.26,16.26,0,0,1,319,58.81c-3.33-2.83-6.6-6.38-11.83-5.74-1.75.21-3.76-.3-4.36-2.19-1.34-4.21-4.56-4.36-8-4.12-1.16.08-2.33.21-3.17-.63-2.41-2.44-5.67-2.4-8.65-2.94-5.46-1-11-.59-16.55-.72-3.2-.08-6.28-1.38-9.52-1.39a186.34,186.34,0,0,0-27.51,2.32c-14.31,2.39-27.3,7.65-38.47,17.08-1.24,1.05-2.48,2.12-4.26,2.06-19.51,3-30.47,15.56-36.84,33.06-5,13.64-7.49,27.84-9,42.24a126.83,126.83,0,0,0,0,27.2,6.85,6.85,0,0,1-.69,4.37c-3,2.89-4.17,6.7-5.17,10.53-2.38,9.08-1.49,18.32-.54,27.44a303.49,303.49,0,0,0,5.76,34.93c1.29,5.71,2.89,11.36,6.35,16.25,2.54,3.58,5.15,4.46,9.35,3.13,4.82-1.54,6.05-.86,7.43,4.16,4.54,16.51,10.5,32.44,19.71,47a119.66,119.66,0,0,0,9.84,13.6c1.49,1.75,2.86,3.49,2.47,6a98.54,98.54,0,0,1,.16,14.68c-.5,1.44.06,3-.39,4.42a4,4,0,0,1-3.8,2.57c-2.81,0-4.16,1.66-5.38,3.86-6.88,12.37-13.8,24.73-20.63,37.13a18.47,18.47,0,0,1-4.21,5.62c-5,4.44-10.8,7.58-16.33,11.15q-25.11,16.27-50.21,32.54c-5.23,3.39-10.43,6.84-15.68,10.2-8.44,5.4-13.38,13.15-16,22.65-3.35,12.26-6.22,24.65-9.66,36.89-.55,2-.63,4.4-3.6,4.48-16.21,0-32.41,0-48.44,0C0,517.11.4,515.69.4,514.38Q.36,259,.39,3.67C.39,2.44.07,1.17.75,0Z"/><path class="cls-2" d="M462,518.17l56.26.07c-.12.25-.24.71-.38.72-1,.06-2,0-3,0H0Q0,261.19,0,3.37A16.23,16.23,0,0,1,.75,0V511.2a31.54,31.54,0,0,1,0,3.37c-.3,2.67.59,3.76,3.5,3.73,15.59-.14,31.18-.1,46.78-.12a4.53,4.53,0,0,1,3.66-1.53c1.63,0,3.25-.07,4.87-.07q197,0,393.92,0C456.33,516.63,459.52,515.66,462,518.17Z"/><path class="cls-3" d="M462,518.17c-.87,0-1.74.07-2.61.07H53.63c-.88,0-1.75,0-2.62-.06,1.47-6.21,2.8-12.45,4.43-18.61,2.58-9.74,5-19.53,8.14-29.1,2.33-7.14,7.23-12.64,13.59-16.75q40.47-26.21,80.91-52.44c.73-.47,1.44-1,2.16-1.47,1.67-.57,2.87.43,4.08,1.3a35.8,35.8,0,0,1,4.43,4c16.95,16.9,33.71,34,51.16,50.39,1,.91,1.74,2.16,3.31,2.34,1.43-.67,2.07-2.08,2.88-3.3,8.55-12.88,17.47-25.52,25.92-38.46a30,30,0,0,1,1.71-2.46c2.2-2.73,3.8-2.82,6,0,3,3.85,5.64,7.93,8.24,12,6.36,10,13.37,19.55,19.85,29.47,2.26,3.47,2.87,3.51,5.93.49,8.88-8.75,17.77-17.51,26.45-26.45,9.13-9.4,19-18,28.18-27.34,1.22-1.24,2.45-2.59,4.5-2.12,6.68,4.27,13.37,8.5,20,12.81q27.56,17.83,55.07,35.77c5.15,3.38,10.44,6.73,14.91,10.9,5.34,5,7.72,11.91,9.49,18.92q4.69,18.58,9.37,37.17A19.79,19.79,0,0,1,462,518.17Z"/><path class="cls-4" d="M194,331.78a12.72,12.72,0,0,0-1.51-3.27c-14.41-16.47-23-35.93-29.24-56.62-1-3.3-1.88-6.63-2.93-10.34-1.53.66-2.73,1.22-4,1.72-4.41,1.8-8.33.65-11-3.34-4.61-6.75-6.36-14.52-7.87-22.37-2.94-15.26-5.64-30.58-5.5-46.16.05-5.59,1.61-11.25,3-16.73.53-2,2.67-3.6,4.08-5.38,1.94.82,2,2.74,2.43,4.36,1.43,5.18,3.1,10.27,6.13,14.78.74,1.1,1.28,2.47,3.32,3,.39-3.74.54-7.42.87-11,.94-10.29,1.82-20.58,3.76-30.73a369.81,369.81,0,0,1,12.06-48.13A289.19,289.19,0,0,1,181.81,67a12.27,12.27,0,0,1,4.76-5.6c4.65-3.23,9.21-6.62,14-9.66,9.39-6,20-8.91,30.79-10.39,8.67-1.19,17.52-1.13,26.29-1.63a5.52,5.52,0,0,1,1.61,4.06c0,1.87.05,3.74.05,5.61q0,150.66,0,301.32c0,2.85.39,5.74-.52,8.53-1.1,2.66-3.48,2.55-5.7,2.47a80.11,80.11,0,0,1-36.63-10.37,81.47,81.47,0,0,1-17.74-12.95A18.55,18.55,0,0,1,194,331.78Z"/><path class="cls-5" d="M257.64,360.21q0-160.23,0-320.45l7.78,1.1c1.92,0,3.21,0,4.5,0a46.41,46.41,0,0,1,5.27-.06c3.63.38,7.27.8,10.84,1.54,2.5.51,5.88-.39,6.61,3.75,4.41-3,7.72.27,11.67,1.25-1.75,3.42-.35,4.43,2.81,4.36,2.86-.06,5.59-1.12,8,2.54,1.18,1.79,4.59,2.71,6.4,5.24,1.05,1.48,3.68,1.83,5.6,2.69,2.08.18,2.86,1.8,3.68,3.35a236.51,236.51,0,0,1,16.56,40.82,331.35,331.35,0,0,1,10.19,42.47q2.43,14,3.61,28.12c.54,6.31.85,12.63,1.29,19a262.38,262.38,0,0,1-5.88,61.22c-.28,1.32-.47,2.8-2.37,2.8l-1.06-.3c-.39,2.57-3.28,4.42-3.38,6.28-.37,7.11-1.38,13.73-5.67,19.73-1.39,1.95-1.26,4.91-2.26,7.22-2.75,6.31-5.11,12.93-8.84,18.63-2.48,3.79-4.18,8.49-8.87,11-1.53.81-1.48,4.6-2.16,7-2.42,6.3-7.95,9.78-12.83,13.7a84,84,0,0,1-44.93,18.42C262,361.83,259.42,362.55,257.64,360.21Z"/><path class="cls-6" d="M352.84,399.7q-20.35,19.83-40.71,39.68c-5.89,5.76-11.66,11.64-17.53,17.41-1.39,1.37-3,2.52-4.82,4l-33-49.06L223.59,461c-1.33-1.14-2.2-1.81-3-2.57Q193.81,432.05,167,405.67c-2.13-2.09-4.5-3.92-6.76-5.86,3.55-6.1,7.18-12.15,10.65-18.3,5.06-9,10-18,15.08-26.94.54-.94,2-1.5,3.2-1.84a32.28,32.28,0,0,1,4.73-.69c2.95.07,4.67,2.31,6.5,4,9.14,8.67,18.38,17.23,27.52,25.9,8.69,8.24,17.57,16.27,26.16,24.61,1.67,1.62,2.88,1.73,4.73.14,6.53-5.62,12.66-11.68,18.91-17.58,12.69-12,25.52-23.84,38.24-35.8,1.43-1.34,2.89-2.94,5.23-1.81,4.78-.27,6.56,3,8.51,6.63C337.3,372.08,345.11,385.87,352.84,399.7Z"/><path class="cls-7" d="M361,195.53c-1.54-20.43-3.46-40.75-8-60.85-5.66-25.29-13.44-49.7-25.87-72.51,5.72-1.19,10.68,1.14,15.41,3.72,12.07,6.6,18.63,17.59,23.05,30.07a157.94,157.94,0,0,1,8.82,44c.52,9.26.17,18.58.21,27.87a7,7,0,0,1,.73,5.36c-1.58,6.83-3.95,13.34-8.14,19C365.76,194.18,364.33,196.91,361,195.53Z"/><path class="cls-7" d="M186.57,61.44c-3.66,7.77-7.95,15.31-10.84,23.36C170.66,98.94,166,113.25,162,127.74A295.76,295.76,0,0,0,155.26,162c-1.42,9.55-1.7,19.26-2.47,28.91-.11,1.42-.19,2.85-.36,5.36-8.64-7.75-11.63-17-13.34-26.94-.18-8.21-.91-16.45-.44-24.62,1.1-19,4.3-37.6,11.82-55.18a49,49,0,0,1,18.84-22.65C174.62,63.46,180.43,62,186.57,61.44Z"/><path class="cls-8" d="M257.64,360.21c20.11-.2,37.59-7.3,52.8-20.25,3.95-3.36,7.69-7,11.52-10.47q-.37,7.89-.73,15.79c-2.73,6.56-8.49,10.37-13.73,14.46-11.49,9-24.55,15.07-39.08,16.67-16.42,1.82-32.51.26-47.65-7.5a94.67,94.67,0,0,1-24.15-17.39c-1.21-1.21-1.64-2.74-2.59-4V331.78c7.14,5.7,13.88,12,21.52,17C228.22,357,242.5,360.47,257.64,360.21Z"/><path class="cls-9" d="M194,347.5c5,4.21,9.84,8.75,15.16,12.56,12.7,9.08,26.71,14.58,42.57,15.23,13.16.53,25.8-1.07,37.83-6.63a89,89,0,0,0,24.07-16.17c2.53-2.39,5-4.81,7.57-7.22q0,3.15,0,6.28a38,38,0,0,0-4.5,3.14q-28.95,27-57.79,54.19c-1.51,1.42-2.59,1.95-4.34.29Q224.28,380.57,193.9,352C193.94,350.53,194,349,194,347.5Z"/><path class="cls-10" d="M361,195.53c2.21-2.22,4.9-4.15,6.55-6.73a49.7,49.7,0,0,0,7.1-20.93c6.73,4.7,7.58,12,8,19.22.93,16.21-1.58,32.17-4.82,48a191.28,191.28,0,0,1-5,18.65,18.91,18.91,0,0,1-3.88,6.69c-4.91,5.49-9.9,5.2-14.72-.51,1.23-6.17,3-12.28,3.58-18.5C359.14,226.14,359.93,210.83,361,195.53Z"/></g></g></svg>