<svg xmlns="http://www.w3.org/2000/svg" xmlns:xlink="http://www.w3.org/1999/xlink" viewBox="0 0 337.29 488.95"><defs><style>.cls-1{fill:#bfbfbf;}.cls-2{fill:url(#linear-gradient);}.cls-3{fill:#009af9;}.cls-4{fill:url(#linear-gradient-2);}.cls-5{fill:url(#linear-gradient-3);}.cls-6{fill:url(#linear-gradient-4);}</style><linearGradient id="linear-gradient" x1="-499.83" y1="-244.55" x2="-27.06" y2="-244.55" gradientTransform="matrix(0.71, -0.71, -0.71, -0.71, 174.4, -123.93)" gradientUnits="userSpaceOnUse"><stop offset="0.15" stop-color="#3b1c6e"/><stop offset="0.45" stop-color="#120630"/><stop offset="0.68" stop-color="#4f278c"/><stop offset="1" stop-color="#34305b"/></linearGradient><linearGradient id="linear-gradient-2" x1="-485.41" y1="-384.99" x2="-29.44" y2="-150.92" gradientTransform="matrix(0.71, -0.71, -0.71, -0.71, 174.4, -123.93)" gradientUnits="userSpaceOnUse"><stop offset="0" stop-color="#7100e4"/><stop offset="1" stop-color="#00faf4"/></linearGradient><linearGradient id="linear-gradient-3" x1="-452.48" y1="-449.14" x2="3.46" y2="-215.05" xlink:href="#linear-gradient-2"/><linearGradient id="linear-gradient-4" x1="-541.04" y1="-245.45" x2="10.86" y2="-245.45" gradientTransform="matrix(0.71, -0.71, -0.71, -0.71, 174.4, -123.93)" gradientUnits="userSpaceOnUse"><stop offset="0" stop-color="#00faf4"/><stop offset="1" stop-color="#7100e4"/></linearGradient></defs><g id="Layer_2" data-name="Layer 2"><g id="BACKGROUND_1" data-name="BACKGROUND 1"><path class="cls-1" d="M135.23,60.64c2.51-.7,4.07.83,3.42,3.39a9.15,9.15,0,0,1-5.85,5.88c-2.52.7-4.1-.81-3.45-3.37A9.22,9.22,0,0,1,135.23,60.64Z"/><path class="cls-1" d="M265.69,26.36c1.76-.28,2.51.35,2.74,1.5A7.2,7.2,0,0,1,264.51,31L159,59.48c-1.59.43-2.67-.2-2.77-1.48a7.6,7.6,0,0,1,3.47-3Z"/><path class="cls-1" d="M156.2,58c0,1.28,1.18,1.91,2.77,1.48L264.46,31a7,7,0,0,0,3.89-3.09,2.21,2.21,0,0,1,0,.81,7.17,7.17,0,0,1-4.62,4.89L158.24,62.07c-2,.55-3.22-.63-2.69-2.51a4.34,4.34,0,0,1,.35-.93A3.64,3.64,0,0,1,156.2,58Z"/><path class="cls-1" d="M282.44,22.19c1.78-.48,2.86.55,2.39,2.33a6.37,6.37,0,0,1-4.07,4.1c-1.76.47-2.84-.58-2.39-2.34A6.4,6.4,0,0,1,282.44,22.19Z"/><path d="M46.87,439.38c1.08-.3,1.73.32,1.46,1.43l-1.48,5.65A4,4,0,0,1,44.33,449l-9.69,2.51c-1.08.3-1.73-.32-1.46-1.43l1.48-5.65a4,4,0,0,1,2.52-2.51Z"/><path class="cls-1" d="M53,431.41c2.26-.62,3.62.73,3,3L54.51,440a8.07,8.07,0,0,1-5,5.2h-.12l-.15.65a8.2,8.2,0,0,1-5.18,5.2l-9.69,2.51c-2.26.61-3.62-.73-3-3L32.78,445A8.07,8.07,0,0,1,38,439.78h.33a.86.86,0,0,1,0-.55,8.07,8.07,0,0,1,5.17-5.2Zm-.57,9.2L53.88,435c.3-1.08-.38-1.71-1.46-1.44L42.75,436a3.8,3.8,0,0,0-2.51,2.51,1.53,1.53,0,0,1-.38.65l7.54-2.06c2.26-.6,3.64.7,3,3L49.66,443h.12a3.83,3.83,0,0,0,2.52-2.51m-5.45,5.85,1.48-5.65c.27-1.1-.38-1.73-1.46-1.43l-9.69,2.51a4,4,0,0,0-2.52,2.51L33.18,450c-.27,1.1.38,1.73,1.46,1.43l9.69-2.51a4,4,0,0,0,2.52-2.52"/><polygon class="cls-2" points="303.19 42.51 215.78 375.3 20.4 428.1 107.8 95.3 303.19 42.51"/><path d="M140.88,409.69c2.51-.68,4,.78,3.34,3.26l-1,3.87a9,9,0,0,1-5.7,5.73L83.77,437.07c-2.51.67-4-.83-3.34-3.29l1-3.85a8.86,8.86,0,0,1,5.7-5.72Z"/><path class="cls-1" d="M141.59,408c3.64-1,5.82,1.18,4.87,4.82l-.73,2.81a13.09,13.09,0,0,1-8.36,8.39L83.11,438.62c-3.64,1-5.82-1.2-4.87-4.82L79,431a13.15,13.15,0,0,1,8.34-8.39Zm1.58,8.89,1-3.87c.66-2.51-.85-3.94-3.34-3.27L87.11,424.23a8.9,8.9,0,0,0-5.7,5.73l-1,3.84c-.66,2.51.85,4,3.34,3.29l53.75-14.52a9,9,0,0,0,5.7-5.72"/><path class="cls-1" d="M181.07,396.28l-.75,2.86,9.52-2.51c3.34-.88,5.32,1.08,4.44,4.39a11.85,11.85,0,0,1-7.53,7.54L172.2,412.5c-.72.18-1.15-.25-.95-.95a2.52,2.52,0,0,1,1.63-1.64L187.4,406a6.93,6.93,0,0,0,4.34-4.37c.51-1.89-.65-3-2.51-2.52l-9.52,2.52-.75,2.81-6.08-2.16Z"/><path class="cls-3" d="M86.35,126.65,62.74,216.51l-2.06.56c-2.11.58-3.39-.66-2.81-2.79L79.45,132.1a7.52,7.52,0,0,1,4.82-4.88Z"/><path d="M52.32,433.52c1.08-.27,1.76.36,1.46,1.44l-1.48,5.65a3.87,3.87,0,0,1-2.52,2.51h-.12l.78-2.91c.6-2.29-.78-3.6-3-3l-7.54,2.06a1.57,1.57,0,0,0,.38-.66,3.8,3.8,0,0,1,2.51-2.51Z"/><path class="cls-4" d="M224.75,391.18l56.71-216,14.75,14.75-56.74,216c-4.27,16.28-21,33.08-37.35,37.48L37.6,487.88c-8.21,2.23-14.77.88-18.73-3.09L4.12,470c4,3.95,10.53,5.28,18.76,3.07l164.49-44.46C203.68,424.28,220.45,407.45,224.75,391.18Z"/><path class="cls-5" d="M318.41,4.18l14.74,14.74c3.92,3.92,5.28,10.37,3.12,18.46l-31,118.05-14.74-14.74,31-118C323.66,14.53,322.3,8.07,318.41,4.18Z"/><path class="cls-3" d="M295,140.44l14.74,14.79a2.51,2.51,0,0,1,.4,2.51l-7.06,26.68a7.53,7.53,0,0,1-4.82,4.87l-2.08.55-14.67-14.67,2.08-.58a7.49,7.49,0,0,0,4.82-4.87l7.06-26.85a3.14,3.14,0,0,0,0-.75A2,2,0,0,0,295,140.44Z"/><path class="cls-3" d="M295,140.44a2,2,0,0,1,.5,1.68,4.7,4.7,0,0,1,0,.75l-7.06,26.85a7.51,7.51,0,0,1-4.82,4.87l-2.09.58,9.07-34.53,2.08-.58A2.54,2.54,0,0,1,295,140.44Z"/><path class="cls-6" d="M299.7,1.06,135.16,45.52C118.86,49.91,102.1,66.74,97.81,83L86.35,126.65,62.74,216.51,1,451.63c-4.3,16.28,5.55,25.92,21.87,21.5l164.49-44.45c16.33-4.4,33.08-21.23,37.38-37.5l56.71-216,9.07-34.53,31-118C325.79,6.31,316-3.33,299.7,1.06Zm18.78,14.39a16.74,16.74,0,0,1,0,2.24,77.93,77.93,0,0,1-2.18,9.42l-5,19.21-20.25,77q-20.34,77-40.19,153.84L230.75,354,220.7,392.48c-.25.93-.47,1.86-.75,2.79a52.18,52.18,0,0,1-29.56,29L37,465.37l-9.65,2.51-2.76.73L23,469a37.79,37.79,0,0,1-5,1.1C9.52,470.35,4.22,465.27,4.1,457A76.88,76.88,0,0,1,6.38,447l5-19.26.52-2,19.62-74.92L71.74,196.92,92,120l10-38.48c.38-1.51.83-3,1.31-4.5A53.16,53.16,0,0,1,128.88,51.3a22,22,0,0,1,2.26-.73L285.56,9.07l9.64-2.51L298,5.81l1.61-.45a35.59,35.59,0,0,1,5-1.08,15.25,15.25,0,0,1,2.13-.15,12,12,0,0,1,11.73,11.35Z"/><path d="M306.8,4.05a15.25,15.25,0,0,0-2.13.15,35.59,35.59,0,0,0-5,1.08L298,5.73l-2.79.76L285.61,9,131.14,50.54c-.77.21-1.52.45-2.26.73a53.21,53.21,0,0,0-25.55,25.92c-.47,1.51-.93,3-1.3,4.5L92,120.17l-20.22,77L31.57,350.94,12,425.86l-.53,2-5,19.26a76.91,76.91,0,0,0-2.29,10c0,8.26,5.43,13.34,13.89,13.14a38.73,38.73,0,0,0,5-1.11l1.54-.43,2.76-.72L37,465.57l153.44-41.14a52.2,52.2,0,0,0,29.52-29c.27-.93.5-1.86.75-2.79l10-38.45,20.09-76.91q20-76.91,40.19-153.84l20.12-77.14,5-19.21a77.93,77.93,0,0,0,2.18-9.42,16.74,16.74,0,0,0,0-2.24A12,12,0,0,0,306.8,4.05ZM55.89,434.38,54.43,440a8.16,8.16,0,0,1-5.2,5.2h0l-.15.65a8.07,8.07,0,0,1-5.17,5.18l-9.7,2.51c-2.26.6-3.62-.73-3-3L32.68,445a8,8,0,0,1,5.17-5.2h.3a.86.86,0,0,1,0-.55,8.07,8.07,0,0,1,5.18-5.2L53,431.36c2.13-.57,3.52.78,2.89,3Zm90.57-21.63-.73,2.82a13,13,0,0,1-8.36,8.39L83.11,438.62c-3.61,1-5.8-1.2-4.87-4.82L79,431a13.13,13.13,0,0,1,8.34-8.39L141.59,408c3.61-1,5.82,1.15,4.87,4.79ZM194.18,401a12.06,12.06,0,0,1-7.53,7.66l-14.57,3.89c-.71.2-1.11-.2-.93-.93a2.52,2.52,0,0,1,1.63-1.63L187.3,406a6.89,6.89,0,0,0,4.34-4.37c.51-1.88-.65-3-2.51-2.51l-9.52,2.51-.75,2.84-6.08-2.19,8.26-6.1-.75,2.86,9.52-2.51c3.34-.88,5.33,1.06,4.47,4.4Zm88.36-279.83L215.76,375.3,20.32,428.05,40,353.2,107.8,95.28,303.16,42.53Z"/><path d="M284.83,24.52a6.37,6.37,0,0,1-4.07,4.1c-1.76.47-2.84-.58-2.39-2.34a6.4,6.4,0,0,1,4.1-4.12C284.22,21.71,285.3,22.76,284.83,24.52Z"/><path d="M268.33,29a7,7,0,0,1-4.53,4.55L158.31,62.07c-2,.55-3.19-.65-2.66-2.51a4.61,4.61,0,0,1,.33-.9A7.52,7.52,0,0,1,160.22,55L266.14,26.18C267.75,26,268.68,27,268.33,29Z"/><path d="M138.65,64.06a9.09,9.09,0,0,1-5.88,5.87c-2.51.68-4.07-.83-3.42-3.39a9.22,9.22,0,0,1,5.88-5.9C137.82,59.94,139.33,61.47,138.65,64.06Z"/></g></g></svg>